<svg width="70" height="32" viewBox="0 0 70 32" fill="none" xmlns="http://www.w3.org/2000/svg">
<rect width="70" height="32" rx="16" fill="black"/>
<rect x="7" width="63" height="32" rx="16" fill="#303030"/>
<rect x="15" width="55" height="32" rx="16" fill="#3D3D3D"/>
<rect x="22" width="48" height="32" rx="16" fill="#4D4D4D"/>
<rect x="31" width="39" height="32" rx="16" fill="#7A7A7A"/>
<ellipse cx="54.5" cy="16" rx="15.5" ry="16" fill="#D7D7D7"/>
<path fill-rule="evenodd" clip-rule="evenodd" d="M59.6408 1.02271C59.2285 2.03748 58.9999 3.15695 58.9999 4.33335C58.9999 6.54005 59.804 8.54642 61.1168 10.0373C60.6071 10.9392 60.253 11.9524 60.0942 13.0348C56.1162 13.4215 52.9999 16.9893 52.9999 21.3333C52.9999 22.2289 53.1324 23.0915 53.3775 23.9C52.7818 24.1416 52.2225 24.4587 51.7093 24.8398C50.3697 23.6889 48.6665 23 46.8124 23C43.6082 23 40.8545 25.0577 39.6493 28.0018C36.8906 28.0621 34.4831 29.6476 33.1379 32H53.9999C60.4271 32 65.9691 28.2105 68.5135 22.7439C68.5194 22.7066 68.5252 22.6693 68.5306 22.6319C68.5427 22.6308 68.5547 22.6296 68.5667 22.6283C69.4871 20.6088 69.9999 18.3643 69.9999 16C69.9999 9.14896 65.694 3.30362 59.6408 1.02271Z" fill="#97A5B9"/>
<path fill-rule="evenodd" clip-rule="evenodd" d="M60.7574 1.49268C60.2723 2.5517 60.0001 3.74191 60.0001 4.99995C60.0001 7.21032 60.8405 9.21131 62.199 10.6592C61.5988 11.6486 61.1977 12.7883 61.0565 14.0137C57.1208 14.2586 54.0001 17.7405 54.0001 22C54.0001 22.9458 54.154 23.8534 54.4365 24.6956C53.7255 25.0354 53.0731 25.4899 52.5001 26.037C51.1732 24.7702 49.4209 24 47.5001 24C44.3525 24 41.6577 26.0682 40.5452 29.0001L40.5001 29C38.1316 29 36.0195 30.171 34.645 32H54.0001C62.8366 32 70.0001 24.8365 70.0001 16C70.0001 9.57811 66.2167 4.03992 60.7574 1.49268Z" fill="#3C6A95"/>
<circle cx="45" cy="16" r="2" fill="#BBBBBB"/>
<circle cx="51.5" cy="15.5" r="1.5" fill="#BBBBBB"/>
<circle cx="52" cy="9" r="3" fill="#BBBBBB"/>
<path d="M9.5 14L9.61226 14.3455H9.97553L9.68164 14.559L9.79389 14.9045L9.5 14.691L9.20611 14.9045L9.31836 14.559L9.02447 14.3455H9.38774L9.5 14Z" fill="#FFE500"/>
<path d="M36.5 9L36.6123 9.34549H36.9755L36.6816 9.55902L36.7939 9.90451L36.5 9.69098L36.2061 9.90451L36.3184 9.55902L36.0245 9.34549H36.3877L36.5 9Z" fill="#FFE500"/>
<path d="M24.5 3L24.6123 3.34549H24.9755L24.6816 3.55902L24.7939 3.90451L24.5 3.69098L24.2061 3.90451L24.3184 3.55902L24.0245 3.34549H24.3877L24.5 3Z" fill="#FFE500"/>
<path d="M5.5 7L5.61226 7.34549H5.97553L5.68164 7.55902L5.79389 7.90451L5.5 7.69098L5.20611 7.90451L5.31836 7.55902L5.02447 7.34549H5.38774L5.5 7Z" fill="#FFE500"/>
<path d="M20 22L20.2245 22.691H20.9511L20.3633 23.118L20.5878 23.809L20 23.382L19.4122 23.809L19.6367 23.118L19.0489 22.691H19.7755L20 22Z" fill="#FFE500"/>
<path d="M23.5 7L23.8368 8.03647H24.9266L24.0449 8.67705L24.3817 9.71353L23.5 9.07295L22.6183 9.71353L22.9551 8.67705L22.0734 8.03647H23.1632L23.5 7Z" fill="#FFE500"/>
<path d="M27.5 26L27.8368 27.0365H28.9266L28.0449 27.6771L28.3817 28.7135L27.5 28.0729L26.6183 28.7135L26.9551 27.6771L26.0734 27.0365H27.1632L27.5 26Z" fill="#FFE500"/>
<path d="M32 19L32.2245 19.691H32.9511L32.3633 20.118L32.5878 20.809L32 20.382L31.4122 20.809L31.6367 20.118L31.0489 19.691H31.7755L32 19Z" fill="#FFE500"/>
<path d="M7 23L7.22451 23.691H7.95106L7.36327 24.118L7.58779 24.809L7 24.382L6.41221 24.809L6.63673 24.118L6.04894 23.691H6.77549L7 23Z" fill="#FFE500"/>
</svg>
