<svg width="70" height="32" viewBox="0 0 70 32" fill="none" xmlns="http://www.w3.org/2000/svg">
<rect width="70" height="32" rx="16" fill="#DCDCDC"/>
<rect width="63" height="32" rx="16" fill="#EBE9E9"/>
<rect width="55" height="32" rx="16" fill="#F4F0F0"/>
<rect width="48" height="32" rx="16" fill="#FFFBEF"/>
<rect width="39" height="32" rx="16" fill="#FFF4CC"/>
<ellipse cx="15.5" cy="16" rx="15.5" ry="16" fill="#FFE500"/>
<path fill-rule="evenodd" clip-rule="evenodd" d="M59.6409 1.02271C59.2286 2.03748 59 3.15695 59 4.33335C59 6.54005 59.8041 8.54642 61.1168 10.0373C60.6072 10.9392 60.2531 11.9524 60.0942 13.0348C56.1162 13.4215 53 16.9893 53 21.3333C53 22.2289 53.1324 23.0915 53.3776 23.9C52.7819 24.1416 52.2225 24.4587 51.7094 24.8398C50.3698 23.6889 48.6665 23 46.8125 23C43.6083 23 40.8545 25.0577 39.6493 28.0018C36.8906 28.0621 34.4832 29.6476 33.1379 32H54C60.4271 32 65.9692 28.2104 68.5137 22.7437C68.5197 22.7065 68.5253 22.6693 68.5308 22.6319C68.5427 22.6308 68.5548 22.6296 68.5668 22.6283C69.4872 20.6088 70 18.3643 70 16C70 9.14896 65.6941 3.30362 59.6409 1.02271Z" fill="#D5FFFC"/>
<path fill-rule="evenodd" clip-rule="evenodd" d="M60.7573 1.49268C60.2722 2.5517 60 3.74191 60 4.99995C60 7.21031 60.8405 9.21131 62.199 10.6592C61.5988 11.6486 61.1976 12.7883 61.0564 14.0137C57.1207 14.2586 54 17.7405 54 22C54 22.9458 54.1538 23.8534 54.4364 24.6956C53.7253 25.0355 53.073 25.4899 52.5 26.037C51.1731 24.7702 49.4209 24 47.5 24C44.3524 24 41.6577 26.0682 40.5452 29.0001L40.5 29C38.1316 29 36.0195 30.171 34.645 32H54C62.8365 32 70 24.8365 70 15.9999C70 9.57811 66.2167 4.03992 60.7573 1.49268Z" fill="#6DB9FF"/>
</svg>
