<svg width="1103" height="1100" viewBox="0 0 1103 1100" fill="none" xmlns="http://www.w3.org/2000/svg">
<g clip-path="url(#clip0_26_375)">
<path d="M84.5021 1097.43C109.516 1095.03 134.857 1086.18 157.914 1075.1C204.757 1052.58 246.381 1015.43 276.062 967.978C349.65 850.346 320.37 720.979 308.829 588.443C301.026 499.02 306.947 399.547 360.489 334.049C452.417 221.585 601.224 271.036 714.429 296.933C774.142 310.58 836.064 320.231 895.677 306.04C1035.68 272.692 1035.4 134.931 968.487 -0.202654L1110.67 -4L1119.03 1100H0C0 1100 76.0719 1098.26 84.5021 1097.43Z" fill="url(#paint0_linear_26_375)"/>
</g>
<g clip-path="url(#clip1_26_375)">
<path d="M667.259 694.731C669.175 689.849 670.348 684.511 669.414 679.342C668.457 674.196 665.009 669.266 660.028 667.614C655.838 666.25 651.145 667.327 647.242 669.409C639.316 673.669 634.072 681.783 631.558 690.399C629.044 699.015 628.948 708.11 629.307 717.109C629.547 723.787 631.055 732.81 632.516 739.87C619.706 723.595 605.124 708.206 589.177 694.324C598.323 675.321 604.214 653.876 599.904 632.575C599.018 628.148 597.605 623.648 594.756 620.01C591.906 616.396 587.309 613.74 582.831 614.194C577.228 614.793 573.421 619.843 571.506 624.988C567.243 636.309 568.991 649.281 572.368 661.344C574.93 670.51 579.814 681.232 584.675 690.495C567.363 675.943 548.519 663.187 528.621 652.943C528.669 652.871 528.741 652.823 528.789 652.751C528.022 652.392 527.256 652.009 526.49 651.65C526.49 651.65 526.466 651.65 526.442 651.65C530.106 631.498 530.177 610.078 521.246 591.481C519.355 587.532 516.96 583.655 513.416 580.974C509.897 578.318 505.012 577.073 500.941 578.725C495.889 580.831 493.566 586.671 493.04 592.056C491.819 603.951 496.56 615.798 502.617 626.281C506.736 633.437 512.89 641.287 518.995 648.204C505.706 642.029 491.986 636.979 477.979 633.293L478.027 633.15C454.537 617.521 425.492 607.349 398.1 614.003C391.635 615.582 384.26 619.531 384.116 626.185C384.045 629.871 386.391 633.269 389.432 635.352C392.497 637.458 396.113 638.391 399.752 639.133C424.894 644.279 450.897 640.593 476.159 635.423C489.903 638.942 503.384 643.8 516.433 649.784C504.725 648.06 492.657 647.845 481.235 650.167C468.999 652.656 456.86 657.442 447.785 666.082C443.187 670.414 439.308 677.212 442.254 682.812C443.786 685.708 446.875 687.503 450.035 688.413C456.237 690.208 462.894 689.131 469.167 687.551C490.837 682.142 510.974 670.63 526.753 654.786C548.16 665.723 568.321 679.629 586.686 695.545C560.156 685.588 531.854 689.753 506.999 703.563C504.078 705.19 501.181 707.009 499.169 709.666C497.158 712.322 496.2 716.008 497.541 719.072C498.427 721.106 500.175 722.614 502.067 723.763C508.125 727.472 515.619 727.879 522.683 727.257C547.346 725.079 566.836 710.001 587.333 696.119C603.088 709.833 617.479 725.031 630.169 741.091C604.669 734.772 576.749 739.343 555.63 753.464C552.35 755.666 549.118 758.179 547.178 761.554C545.239 764.929 544.808 769.38 547.058 772.731C550.123 777.302 556.66 778.236 562.239 777.949C575.432 777.23 587.955 772.396 599.042 765.814C609.721 759.496 621.717 750.544 631.295 742.527C632.037 743.484 632.803 744.441 633.522 745.399C634.264 746.356 655.766 776.441 656.484 777.398C657.49 778.738 659.549 777.159 658.544 775.818C657.873 774.909 636.419 744.896 635.725 744.011C635.102 743.197 634.455 742.383 633.809 741.569C641.998 732.498 649.66 722.925 656.7 712.945C660.746 707.201 664.625 701.265 667.211 694.707L667.259 694.731Z" fill="url(#paint1_linear_26_375)"/>
<path d="M289.728 942.109C288.626 941.248 287.046 940.338 285.13 938.831C283.191 937.371 280.701 935.671 277.851 933.278C272.033 928.635 264.418 921.67 254.649 911.235C249.788 905.946 244.233 899.938 237.96 893.117C233.171 888.019 227.879 882.467 221.63 876.842C221.63 875.55 221.606 874.186 221.582 872.702C221.462 870.165 221.175 867.269 220.672 864.014C220.169 860.783 219.427 857.193 218.134 853.459C216.793 849.773 214.997 845.92 212.674 842.043C211.501 840.104 210.208 838.189 208.795 836.275C207.383 834.384 205.778 832.661 204.27 831.009C201.181 827.707 198.164 824.787 195.602 822.034C193.064 819.33 191.077 816.793 189.712 814.519C188.347 812.221 187.605 810.379 187.126 807.53C186.671 804.754 186.647 801.451 186.767 798.124C186.886 794.774 187.054 791.327 187.054 788.096C187.054 786.924 187.03 785.775 186.958 784.626C186.958 784.53 186.958 784.434 186.958 784.339C186.934 783.812 186.886 783.31 186.838 782.807C186.838 782.568 186.79 782.328 186.767 782.089C186.719 781.706 186.695 781.323 186.647 780.964C186.575 780.342 186.479 779.719 186.383 779.145C185.881 776.465 185.162 774.239 184.396 772.515C183.989 771.654 183.606 770.936 183.271 770.314C182.888 769.715 182.528 769.213 182.241 768.83C181.642 768.064 181.403 767.681 181.403 767.681C181.403 767.681 181.403 768.183 181.283 769.117C181.235 769.572 181.211 770.122 181.116 770.768C180.972 771.415 180.804 772.156 180.637 772.946C180.254 774.55 179.607 776.417 178.721 778.451C177.74 780.533 176.662 782.759 175.249 785.368C173.884 787.953 172.328 790.825 170.772 794.295C169.263 797.766 167.707 801.858 166.988 807.004C166.653 809.565 166.581 812.389 166.917 815.357C167.228 818.348 168.09 821.316 169.191 824.093C171.466 829.621 174.866 834.288 178.601 838.189C182.337 842.043 186.048 844.939 189.305 847.452C192.561 850.013 195.387 851.927 198.14 854.177C200.846 856.403 203.384 858.701 205.635 861.046C206.521 861.932 207.407 862.817 208.245 863.703C209.586 865.091 210.879 866.479 212.028 867.843C212.77 868.705 213.441 869.543 214.063 870.38C201.78 860.328 185.952 852.334 168.688 846.997C164.881 845.824 161.002 844.795 157.075 843.838C156.86 843.646 156.668 843.479 156.453 843.287C155.687 842.545 154.825 841.756 153.915 840.918C153.053 839.961 152.095 839.027 151.185 837.878C149.294 835.653 147.45 832.9 145.75 829.765C144.888 828.209 144.145 826.51 143.427 824.763C142.685 823.039 142.014 821.197 141.416 819.306C140.243 815.524 139.476 811.432 139.237 807.291C138.997 803.151 139.237 798.675 139.692 793.745C140.123 788.814 140.817 783.405 140.721 777.422C140.721 771.415 140.362 765 138.806 758.586C137.226 752.196 134.424 745.782 130.689 740.54C126.977 735.299 122.715 731.493 118.764 728.501C114.694 725.605 110.863 723.451 107.439 721.585C106.601 721.13 105.763 720.699 104.924 720.244C104.062 719.861 103.2 719.502 102.458 719.119C100.974 718.354 99.513 717.612 98.1243 716.894C96.7594 716.199 95.5622 715.505 94.4129 714.883C93.2157 714.309 92.1382 713.758 91.2283 713.184C89.4085 712.059 88.0437 711.054 87.1817 710.336C86.3197 709.618 85.8887 709.211 85.8887 709.211C85.8887 709.211 86.1521 709.761 86.631 710.767C87.062 711.844 87.8042 713.351 88.7141 715.41C89.193 716.415 89.7198 717.54 90.2705 718.856C90.9409 720.029 91.6353 721.369 92.4494 722.733C93.2875 724.145 94.1734 725.582 95.0594 727.089C95.5383 727.855 95.9693 728.669 96.4242 729.507C96.9271 730.296 97.4538 731.086 97.9806 731.9C100.088 735.131 102.362 738.554 104.35 742.096C106.457 745.542 108.253 749.084 109.402 752.531C110.527 755.977 111.198 759.52 111.605 763.78C111.701 764.665 111.797 765.623 111.892 766.556C111.916 766.819 111.94 767.083 111.964 767.346C112.036 768.112 112.108 768.878 112.156 769.667C112.204 770.194 112.251 770.72 112.275 771.247C112.443 773.449 112.611 775.77 112.754 778.236C112.994 783.692 113.712 789.508 114.861 795.372C115.987 801.236 117.639 807.171 120.057 812.604C122.476 818.037 125.517 822.68 128.725 826.582C130.353 828.52 132.006 830.291 133.658 831.871C135.358 833.427 137.058 834.815 138.734 836.035C141.943 838.381 144.936 840.272 147.689 841.684C137.633 839.602 127.336 837.998 116.969 836.538C115.005 835.222 112.922 833.714 110.719 832.062C107.87 829.837 104.853 827.3 101.668 824.739C98.5074 822.106 95.227 819.234 91.9227 816.17C88.6183 813.107 85.314 809.78 81.9618 806.382C78.3222 802.696 74.8982 799.225 71.4023 795.707C67.6909 791.998 63.9316 788.36 60.0766 784.913C56.2215 781.443 52.2946 778.164 48.1283 775.364C44.0338 772.515 39.8914 769.955 35.8688 767.753C32.8039 766.077 29.8108 764.641 26.9854 763.397C26.0994 763.014 25.2374 762.631 24.3754 762.296C20.7838 760.788 17.3837 759.759 14.4145 758.897C11.4215 758.06 8.85944 757.389 6.6805 756.982C2.65784 756.193 0.0718384 755.69 0.0718384 755.69C0.0718384 755.69 1.62823 757.485 4.21422 760.932C6.99178 764.665 10.775 769.739 14.7498 775.076C19.1555 780.868 23.9923 787.546 29.6911 794.965C32.4926 798.723 35.749 802.457 39.3646 806.238C42.9803 810.043 46.955 813.897 51.4087 817.654C55.8624 821.388 60.5555 824.834 65.4162 827.85C70.3008 830.818 75.2813 833.235 80.0941 835.222C84.907 837.208 89.6001 838.764 94.0298 840.008C98.4116 841.301 102.674 841.947 106.505 842.545C107.798 842.713 109.019 842.88 110.192 843.024H110.24C111.126 843.144 111.988 843.239 112.826 843.335C113.209 843.383 113.592 843.431 113.975 843.455C114.239 843.479 114.526 843.503 114.79 843.527C115.46 843.598 116.13 843.646 116.777 843.718C118.285 843.862 119.698 843.934 120.967 844.005C121.59 844.053 122.212 844.077 122.811 844.125C123.41 844.101 123.96 844.125 124.487 844.125C126.594 844.173 128.175 844.316 129.276 844.364C129.922 844.412 130.353 844.46 130.641 844.46C143.26 846.59 155.519 849.175 167.012 852.741C181.259 857.241 194.189 863.392 204.964 871.074C204.653 871.026 204.342 870.979 204.007 870.955C201.588 870.572 198.619 870.739 195.147 871.074C191.675 871.409 187.796 872.319 183.678 873.348C179.535 874.305 175.249 875.67 170.963 876.531C170.005 876.723 169.024 876.866 168.042 877.034C167.659 877.082 167.252 877.154 166.845 877.201C166.27 877.273 165.671 877.345 165.097 877.417C164.57 877.465 164.043 877.536 163.517 877.584C163.086 877.632 162.631 877.656 162.176 877.68C161.553 877.728 160.907 877.776 160.26 877.8C159.23 877.848 158.201 877.895 157.123 877.943C152.119 878.135 146.708 877.919 140.841 878.063C134.999 878.183 128.582 878.398 121.757 879.451C116.585 880.241 111.389 881.486 106.337 883.376C106.122 883.448 105.93 883.544 105.715 883.616C105.14 883.831 104.589 884.046 104.039 884.286C103.248 884.621 102.482 884.956 101.692 885.315C95.2988 888.259 89.3367 892.734 85.0506 897.713C80.7167 902.619 77.9152 907.741 75.6883 912.36C73.4615 917.003 71.8333 921.263 70.3487 925.069C68.8642 928.85 67.5472 932.225 66.2542 935.145C65.6077 936.581 64.9612 937.921 64.3626 939.166C63.7401 940.362 63.1415 941.463 62.5907 942.492C62.0161 943.45 61.4653 944.335 61.0104 945.101C60.5315 945.843 60.0526 946.442 59.7174 946.944C58.9991 947.925 58.592 948.476 58.592 948.476C58.592 948.476 59.2146 948.189 60.316 947.662C60.8667 947.375 61.609 947.064 62.4231 946.633C63.2372 946.154 64.1711 945.604 65.2007 944.982C66.2303 944.335 67.3078 943.546 68.529 942.636C69.6783 941.727 70.9473 940.673 72.2164 939.525C74.7785 937.203 77.5081 934.379 80.3336 931.22C81.1237 930.334 81.9378 929.401 82.752 928.467C83.6618 927.438 84.5717 926.385 85.4816 925.308C85.5295 925.26 85.5774 925.188 85.6253 925.141C86.4394 924.207 87.2535 923.298 88.0676 922.364C88.1873 922.221 88.3071 922.101 88.4268 921.957C89.3127 920.952 90.2226 919.971 91.1564 919.014C93.6227 916.429 96.1848 913.963 98.8905 911.881C102.315 909.249 105.954 907.286 110.408 905.659C112.994 904.725 115.795 903.935 118.788 903.241C120.919 902.739 123.122 902.308 125.445 901.901C130.976 900.92 136.723 900.273 142.613 899.412C148.479 898.622 154.394 897.425 160.069 895.87C165.743 894.314 171.179 892.232 175.944 889.695C180.661 887.134 184.42 884.525 187.724 882.108C191.053 879.714 194.022 877.8 196.775 876.292C199.529 874.76 202.091 873.899 204.246 873.157C205.252 872.845 206.185 872.654 207 872.51C208.508 873.635 209.993 874.808 211.405 876.005C220.193 883.137 227.328 890.508 233.674 897.162C236.403 900.034 247.681 910.9 250.866 915.352C250.89 915.352 250.914 915.352 250.938 915.352C260.875 925.523 268.968 932.321 275.265 936.653C278.402 938.926 281.155 940.458 283.358 941.679C285.513 942.971 287.357 943.641 288.674 944.192C291.332 945.245 292.314 945.317 292.505 944.958C292.697 944.575 292.098 943.785 289.871 942.157L289.728 942.109Z" fill="url(#paint2_linear_26_375)"/>
<path d="M626.147 549.741C609.553 550.124 596.48 558.285 590.326 569.414C594.588 574.584 600.407 578.748 607.231 581.62C613.863 584.66 621.526 586.383 629.691 586.359C637.856 586.359 645.47 584.612 651.839 581.549C658.161 578.533 663.356 574.129 666.733 568.672C662.423 562.976 656.341 558.165 649.373 554.767C645.877 553.068 642.19 551.727 638.311 550.842C634.36 550.028 630.265 549.645 626.123 549.741H626.147Z" fill="url(#paint3_linear_26_375)"/>
<path d="M609.936 483.899C608.356 467.17 614.294 452.666 624.95 445.558C628.086 447.712 631.055 450.272 633.761 453.192C636.467 456.088 638.909 459.367 640.897 463.029C644.943 470.257 647.577 478.49 648.2 487.011C648.87 495.459 647.266 503.333 644.225 509.748C641.16 516.186 636.634 521.26 631.151 524.515C625.572 519.991 620.496 514.223 616.808 507.282C613.073 500.39 610.774 492.228 609.936 483.899Z" fill="url(#paint4_linear_26_375)"/>
<path d="M534.128 469.132C517.726 471.717 505.802 481.482 501.229 493.377C506.209 497.972 512.626 501.419 519.857 503.381C526.945 505.487 534.847 506.182 542.988 505.033C559.27 502.687 572.008 493.999 577.085 482.224C572.008 477.174 565.304 473.321 557.929 470.927C554.218 469.754 550.387 468.917 546.388 468.606C542.365 468.318 538.247 468.486 534.152 469.132H534.128Z" fill="url(#paint5_linear_26_375)"/>
<path d="M509.466 405.971C505.898 389.529 510.112 374.427 519.786 366.074C526.466 369.568 532.644 374.81 537.552 381.296C542.389 387.925 545.981 395.728 547.657 404.057C549.357 412.385 548.854 420.236 546.651 427.033C544.472 433.806 540.641 439.43 535.661 443.403C532.572 441.561 529.603 439.359 526.801 436.846C524.024 434.309 521.462 431.413 519.187 428.206C514.662 421.767 511.261 414.109 509.442 405.947L509.466 405.971Z" fill="url(#paint6_linear_26_375)"/>
<path d="M432.46 400.179C416.513 404.439 405.547 415.616 402.386 427.847C407.941 431.843 414.67 434.692 422.092 435.912C429.539 437.085 437.489 436.941 445.438 434.907C461.337 430.862 473.022 420.547 476.638 408.317C470.987 403.937 463.947 400.778 456.333 399.222C448.671 397.762 440.41 398.001 432.436 400.155L432.46 400.179Z" fill="url(#paint7_linear_26_375)"/>
<path d="M401.165 340.01C395.993 323.974 398.603 308.681 407.367 299.323C414.382 301.979 420.967 306.646 426.45 312.63C431.958 318.589 436.363 325.865 438.83 334.074C443.834 350.397 440.194 365.475 431.119 374.475C424.511 371.65 418.333 367.007 413.161 361.072C407.941 355.256 403.727 348.076 401.141 340.01H401.165Z" fill="url(#paint8_linear_26_375)"/>
<path d="M329.954 344.342C314.462 350.134 304.621 362.292 302.658 374.81C314.486 381.75 330.912 383.234 346.356 377.682C361.848 372.009 372.36 360.737 374.754 348.147C362.638 340.465 345.47 338.454 329.954 344.342Z" fill="url(#paint9_linear_26_375)"/>
<path d="M289.44 287.428C282.76 271.919 283.861 256.434 291.715 246.286C298.97 248.272 305.962 252.341 312.044 257.702C318.078 263.159 323.106 270.052 326.387 277.854C332.899 293.65 330.697 309.016 322.555 318.853C315.707 316.627 309.147 312.582 303.4 307.269C300.527 304.588 297.893 301.549 295.546 298.198C293.176 294.895 291.116 291.281 289.44 287.428Z" fill="url(#paint10_linear_26_375)"/>
<path d="M228.478 301.381C221.127 305.139 215.476 310.38 211.717 316.268C208.125 322.227 206.305 328.785 205.395 334.912C210.879 337.401 218.062 338.694 225.413 338.43C232.812 338.119 240.57 336.348 247.968 332.758C262.718 325.698 272.176 313.3 273.302 300.615C260.539 294.105 243.156 293.818 228.478 301.381Z" fill="url(#paint11_linear_26_375)"/>
<path d="M203.911 273.115C203.911 273.115 581.49 391.443 747.689 676.446" stroke="url(#paint12_linear_26_375)" stroke-width="2" stroke-miterlimit="10"/>
<path d="M148.096 315.433C182.489 309.136 207.901 290.561 204.856 273.945C201.811 257.329 171.462 248.963 137.069 255.26C102.677 261.557 77.2647 280.132 80.3098 296.748C83.3548 313.365 113.704 321.73 148.096 315.433Z" fill="url(#paint13_linear_26_375)"/>
<path d="M150.778 228.455C184.851 237.119 209.131 257.343 205.012 273.642C200.894 289.917 169.91 296.116 135.837 287.428C101.764 278.764 77.4842 258.54 81.6026 242.241C85.7211 225.966 116.705 219.767 150.778 228.431V228.455Z" fill="url(#paint14_linear_26_375)"/>
<path d="M205.502 273.533C217.286 261.387 206.514 231.84 181.442 207.537C156.37 183.235 126.492 173.38 114.709 185.526C102.925 197.672 113.697 227.219 138.769 251.522C163.841 275.825 193.719 285.679 205.502 273.533Z" fill="url(#paint15_linear_26_375)"/>
<path d="M232.836 607.493C334.408 627.956 421.973 706.961 452.717 805.855" stroke="url(#paint16_linear_26_375)" stroke-width="2" stroke-miterlimit="10"/>
<path d="M268.896 592.821C265.999 586.479 256.9 583.87 245.263 584.971C241.432 573.914 235.23 566.734 228.262 566.734C221.965 566.734 216.314 572.574 212.459 581.812C202.642 579.873 194.644 581.285 191.148 586.503C187.533 591.864 189.448 600.097 195.339 608.713C188.131 616.276 184.923 624.103 187.605 629.967C190.502 636.309 199.601 638.918 211.238 637.817C215.069 648.874 221.27 656.054 228.238 656.054C234.536 656.054 240.187 650.214 244.042 640.976C253.859 642.915 261.856 641.503 265.352 636.285C268.968 630.924 267.052 622.691 261.162 614.075C268.369 606.512 271.578 598.685 268.896 592.821Z" fill="url(#paint17_linear_26_375)"/>
<path d="M227.017 621.35C233.537 621.35 238.822 616.068 238.822 609.551C238.822 603.034 233.537 597.752 227.017 597.752C220.498 597.752 215.213 603.034 215.213 609.551C215.213 616.068 220.498 621.35 227.017 621.35Z" fill="#0C1153"/>
<path d="M671.593 303.535C667.882 363.872 681.387 425.142 710.096 478.347" stroke="url(#paint18_linear_26_375)" stroke-width="2" stroke-miterlimit="10"/>
<path d="M712.49 285.058C709.593 278.716 700.494 276.107 688.857 277.208C685.026 266.151 678.825 258.971 671.857 258.971C665.559 258.971 659.908 264.81 656.053 274.049C646.236 272.11 638.239 273.522 634.743 278.74C631.127 284.101 633.043 292.334 638.933 300.95C631.726 308.513 628.517 316.34 631.199 322.203C634.096 328.546 643.195 331.155 654.832 330.054C658.663 341.111 664.865 348.291 671.833 348.291C678.13 348.291 683.781 342.451 687.636 333.213C697.453 335.151 705.451 333.739 708.947 328.522C712.562 323.161 710.647 314.928 704.756 306.311C711.964 298.748 715.172 290.922 712.49 285.058Z" fill="url(#paint19_linear_26_375)"/>
<path d="M658.807 301.788C658.807 295.278 664.099 289.989 670.612 289.989C677.124 289.989 682.416 295.278 682.416 301.788C682.416 308.298 677.124 313.587 670.612 313.587C664.099 313.587 658.807 308.298 658.807 301.788Z" fill="#0C1153"/>
<path d="M879.215 600.911C887.428 590.979 894.109 579.347 896.862 566.423C897.988 560.966 898.084 554.36 894.037 550.626C891.068 547.898 886.614 547.659 882.951 549.047C879.311 550.435 876.318 553.235 873.66 556.155C856.468 574.847 847.657 601.701 849.979 627.86C836.068 612.878 823.257 596.316 812.099 578.653C828.956 560.535 846.866 543.614 852.805 519.584C854.505 512.715 855.271 505.248 852.517 498.69C851.679 496.632 850.458 494.669 848.59 493.497C845.789 491.702 841.982 492.085 839.037 493.664C836.091 495.244 833.865 497.805 831.805 500.461C814.35 522.887 805.874 550.196 811.644 577.935C798.738 557.352 788.083 535.309 780.564 512.476C798.642 499.337 813.129 481.219 821.821 460.636C824.335 454.676 826.442 448.286 825.604 441.872C825.197 438.617 823.904 435.29 821.27 433.327C816.194 429.546 808.867 432.322 803.886 436.199C793.949 443.834 787.365 455.083 783.031 466.787C778.96 477.7 777.332 489.667 777.236 501.491C773.333 487.657 770.603 473.608 769.239 459.487C778.218 435.338 785.856 410.207 784.635 384.598C784.467 380.889 784.084 377.155 782.48 373.828C780.9 370.502 777.883 367.677 774.219 367.175C767.634 366.313 762.582 372.967 760.02 379.118C749.245 405.157 754.824 435.41 766.653 461.019H766.796C768.281 475.403 771.178 489.715 775.249 503.788C769.358 496.704 762.534 489.428 756.093 484.258C746.659 476.671 735.692 470.161 723.72 469.539C718.309 469.228 712.179 470.616 709.33 475.283C707.055 479.041 707.558 484.043 709.641 487.944C711.748 491.821 715.196 494.789 718.812 497.278C735.812 508.958 757.003 512.189 777.499 511.662C777.499 511.662 777.499 511.686 777.499 511.71C777.739 512.524 778.002 513.338 778.218 514.151C778.29 514.104 778.361 514.056 778.433 514.008C785.497 535.237 795.218 555.796 806.927 575.134C798.523 568.912 788.658 562.45 779.99 558.501C768.592 553.307 756.021 549.597 744.193 552.062C738.829 553.163 733.25 556.131 731.79 561.588C730.664 565.944 732.58 570.874 735.716 574.249C738.877 577.624 743.115 579.706 747.353 581.261C767.73 588.777 789.855 586.264 810.04 580.137C821.318 598.015 834.296 614.769 848.423 629.943C841.647 627.43 832.955 624.557 826.394 623.289C817.582 621.566 808.555 620.249 799.648 621.398C790.741 622.571 781.905 626.496 776.494 633.676C773.836 637.194 772.064 641.67 772.758 646.026C773.62 651.196 777.954 655.36 782.911 657.083C787.867 658.807 793.351 658.472 798.451 657.323C805.323 655.767 811.788 652.871 818.085 649.736C829.028 644.327 839.659 638.224 849.907 631.522C850.626 632.264 851.32 633.03 852.038 633.772C852.829 634.586 879.191 660.386 879.982 661.2C881.155 662.397 883.023 660.602 881.849 659.405C881.011 658.543 854.577 632.695 853.738 631.809C852.9 630.924 852.062 630.038 851.248 629.153C860.658 620.896 871.362 610.437 879.239 600.863L879.215 600.911Z" fill="url(#paint20_linear_26_375)"/>
<path d="M971.018 561.085C929.499 557.328 888.266 520.446 893.774 470.329C895.546 453.48 905.578 436.223 904.644 419.518C902.92 375.336 850.123 380.817 837.863 346.448C831.398 327.421 835.206 302.051 847.106 282.402C853.332 272.086 861.377 263.422 867.315 253.035C875.935 237.957 878.569 221.658 874.618 204.761C870.524 187.313 861.928 171.206 858.599 153.662C856.325 141.743 857.306 128.747 863.843 118.528C870.38 108.308 883.262 101.702 894.995 104.814C906.249 107.782 913.983 118.719 916.569 130.088C922.028 154.093 904.98 201.673 941.95 207.441C950.354 208.758 959.501 206.604 968.001 207.346C984.188 208.758 997.357 221.084 1003.1 238.388C1013.35 269.358 983.326 319.355 1013.02 341.638C1024.27 349.943 1040.36 347.358 1052.93 352.24C1118.4 379.931 1111.38 478.897 1074.15 522.241C1054.51 543.614 1018.09 565.705 971.114 561.133L971.018 561.085Z" fill="url(#paint21_linear_26_375)"/>
<path d="M969.869 243.318C963.715 275.868 952.174 301.932 935.988 325.123" stroke="#0C1153" stroke-linecap="round" stroke-linejoin="round"/>
<path d="M1020.1 368.012C1023.07 400.466 1012.42 430.455 1000.18 446.395" stroke="#0C1153" stroke-linecap="round" stroke-linejoin="round"/>
<path d="M868.153 328.809C895.115 344.294 922.698 349.033 946.499 349.153" stroke="#0C1153" stroke-linecap="round" stroke-linejoin="round"/>
<path d="M943.554 473.751C974.011 482.607 997.022 483.66 1022.64 479.615" stroke="#0C1153" stroke-linecap="round" stroke-linejoin="round"/>
<path d="M905.267 234.582C936.395 349.799 994.005 449.148 1055.28 518.699" stroke="#0C1153" stroke-linecap="round" stroke-linejoin="round"/>
<path d="M1088.06 594.569C1075.44 557.112 1055.93 524.299 1031.84 497.446C979.83 439.431 895.952 467.696 889.703 545.337C888.985 554.312 888.721 563.431 888.913 572.621C889.2 586.407 890.565 600.408 893.031 614.458C895.498 628.507 899.065 642.627 903.806 656.653C905.458 661.535 907.206 666.322 909.074 671.037C938.837 745.997 996.806 800.422 1062.22 822.202C1103.55 761.697 1115.83 676.948 1088.06 594.569Z" fill="url(#paint22_linear_26_375)"/>
<path d="M1057.34 801.834L958.304 514.63" stroke="#0C1153" stroke-linecap="round" stroke-linejoin="round"/>
<path d="M1037.15 743.005L1066.77 683.53" stroke="#0C1153" stroke-linecap="round" stroke-linejoin="round"/>
<path d="M995.705 623.457L1025.32 564.005" stroke="#0C1153" stroke-linecap="round" stroke-linejoin="round"/>
<path d="M1014.55 679.629L962.039 653.493" stroke="#0C1153" stroke-linecap="round" stroke-linejoin="round"/>
<path d="M979.279 574.512L926.769 548.401" stroke="#0C1153" stroke-linecap="round" stroke-linejoin="round"/>
<path d="M765.096 971.835C768.712 923.848 734.567 869.902 676.406 866.623C656.867 865.45 635.294 873.563 616.449 869.303C566.453 858.916 582.736 799.872 545.933 779.361C525.484 768.375 495.865 767.872 471.178 777.685C458.248 782.807 446.827 790.298 433.873 795.085C415.053 802.026 395.969 801.93 377.46 794.199C358.352 786.206 341.639 773.377 322.292 766.221C309.147 761.362 294.157 759.998 281.251 765.479C268.369 770.96 258.384 784.387 259.677 798.316C260.922 811.695 271.913 822.585 284.364 827.683C310.679 838.477 368.146 828.137 367.667 871.29C367.571 881.103 363.357 891.107 362.59 900.92C361.106 919.636 372.671 936.94 391.276 946.777C424.607 964.344 487.293 939.668 507.023 977.723C514.326 992.107 508.34 1009.96 511.501 1025.16C530.585 1104.95 644.656 1115.82 701.165 1081.69C729.251 1063.41 761.361 1026.14 765.096 971.811V971.835Z" fill="url(#paint23_linear_26_375)"/>
<path d="M403.248 910.014C441.511 909.201 473.405 901.039 502.905 887.038" stroke="#0C1153" stroke-linecap="round" stroke-linejoin="round"/>
<path d="M535.757 990.958C572.152 1000.53 608.38 994.117 628.852 983.204" stroke="#0C1153" stroke-width="0.96" stroke-linecap="round" stroke-linejoin="round"/>
<path d="M520.025 810.498C532.524 844.149 532.692 876.459 528.286 903.576" stroke="#0C1153" stroke-linecap="round" stroke-linejoin="round"/>
<path d="M670.827 923.944C675.113 960.323 671.929 986.674 662.447 1015.08" stroke="#0C1153" stroke-linecap="round" stroke-linejoin="round"/>
<path d="M405.619 834.815C530.968 892.208 633.186 976.694 700.782 1059.7" stroke="#0C1153" stroke-linecap="round" stroke-linejoin="round"/>
<path d="M874.426 821.771C826.897 786.732 771.394 771.295 718.524 774.239C682.751 776.225 658.831 808.631 667.523 843.383C680.357 894.721 711.509 943.187 759.038 978.202C824.335 1026.33 904.692 1037.46 972.551 1014.82C974.131 943.33 939.723 869.878 874.426 821.771Z" fill="url(#paint24_linear_26_375)"/>
<path d="M956.891 1000.94L711.03 822.321" stroke="#0C1153" stroke-linecap="round" stroke-linejoin="round"/>
<path d="M906.608 964.296L896.767 898.598" stroke="#0C1153" stroke-linecap="round" stroke-linejoin="round"/>
<path d="M804.102 890.078L794.26 824.404" stroke="#0C1153" stroke-linecap="round" stroke-linejoin="round"/>
<path d="M851.751 925.308L793.734 933.996" stroke="#0C1153" stroke-linecap="round" stroke-linejoin="round"/>
<path d="M762.582 859.395L704.565 868.059" stroke="#0C1153" stroke-linecap="round" stroke-linejoin="round"/>
<path d="M896.024 901.494C856.779 853.938 838.63 796.425 840.856 741.426C842.078 711.461 867.483 690.519 897.15 695.018C951.599 703.299 1004.64 732.044 1043.88 779.6C1094.86 841.373 1110.23 919.923 1091.63 987.966C1021.25 993.28 947.026 963.267 896.048 901.494H896.024Z" fill="url(#paint25_linear_26_375)"/>
<path d="M1078 972.529L998.075 874.305C998.075 874.305 998.147 874.114 998.171 873.994L1003.61 816.458C1003.68 815.812 1003.2 815.237 1002.55 815.165C1001.91 815.094 1001.33 815.572 1001.26 816.218L996.016 871.745L960.89 828.592C960.794 828.257 960.579 827.994 960.267 827.826L928.565 788.862L933.904 732.235C933.976 731.589 933.497 731.015 932.851 730.943C932.204 730.847 931.63 731.35 931.558 731.996L926.434 786.229L888.961 740.181C888.554 739.678 887.811 739.607 887.309 740.014C886.806 740.42 886.734 741.162 887.141 741.665L926.146 789.58C926.123 790.179 926.53 790.705 927.128 790.801L956.915 827.395L894.66 821.532C894.013 821.46 893.438 821.939 893.367 822.585C893.295 823.231 893.774 823.805 894.42 823.877L958.974 829.98L1035.74 924.303L973.197 918.391C972.575 918.319 971.976 918.798 971.904 919.444C971.832 920.091 972.311 920.665 972.958 920.737L1037.8 926.864L1076.13 973.965C1076.37 974.252 1076.71 974.396 1077.04 974.396C1077.31 974.396 1077.57 974.3 1077.79 974.133C1078.29 973.726 1078.36 972.984 1077.95 972.481L1078 972.529Z" fill="#0C1153"/>
<path d="M742.445 686.929C783.318 701.72 815.93 737.477 826.897 779.528" stroke="url(#paint26_linear_26_375)" stroke-width="2" stroke-miterlimit="10"/>
<path d="M781.546 674.435C779.104 669.074 771.418 666.872 761.6 667.806C758.368 658.471 753.124 652.416 747.234 652.416C741.918 652.416 737.153 657.347 733.897 665.149C725.612 663.522 718.86 664.718 715.914 669.122C712.873 673.645 714.478 680.61 719.458 687.886C713.376 694.252 710.647 700.882 712.921 705.836C715.364 711.197 723.05 713.399 732.867 712.466C736.1 721.8 741.343 727.855 747.234 727.855C752.549 727.855 757.314 722.925 760.571 715.122C768.856 716.75 775.608 715.553 778.553 711.149C781.594 706.626 779.99 699.661 775.009 692.385C781.115 686.019 783.821 679.39 781.546 674.435Z" fill="url(#paint27_linear_26_375)"/>
<path d="M746.18 698.513C751.681 698.513 756.141 694.055 756.141 688.556C756.141 683.057 751.681 678.6 746.18 678.6C740.679 678.6 736.219 683.057 736.219 688.556C736.219 694.055 740.679 698.513 746.18 698.513Z" fill="#0C1153"/>
</g>
<defs>
<linearGradient id="paint0_linear_26_375" x1="384.625" y1="347.84" x2="947.414" y2="857.378" gradientUnits="userSpaceOnUse">
<stop stop-color="#0C1153"/>
<stop offset="1" stop-color="#090D40"/>
</linearGradient>
<linearGradient id="paint1_linear_26_375" x1="414.191" y1="594.976" x2="654.768" y2="750.643" gradientUnits="userSpaceOnUse">
<stop stop-color="#A0C896"/>
<stop offset="0.44" stop-color="#3FA494"/>
<stop offset="0.64" stop-color="#3FA494" stop-opacity="0.58"/>
<stop offset="0.81" stop-color="#3FA494" stop-opacity="0.27"/>
<stop offset="0.93" stop-color="#3FA494" stop-opacity="0.07"/>
<stop offset="1" stop-color="#3FA494" stop-opacity="0"/>
</linearGradient>
<linearGradient id="paint2_linear_26_375" x1="90.0581" y1="833.108" x2="280.396" y2="992.171" gradientUnits="userSpaceOnUse">
<stop offset="0.43" stop-color="#3FA494"/>
<stop offset="0.63" stop-color="#3FA494" stop-opacity="0.58"/>
<stop offset="0.8" stop-color="#3FA494" stop-opacity="0.27"/>
<stop offset="0.93" stop-color="#3FA494" stop-opacity="0.07"/>
<stop offset="1" stop-color="#3FA494" stop-opacity="0"/>
</linearGradient>
<linearGradient id="paint3_linear_26_375" x1="565.041" y1="565.633" x2="669.606" y2="569.633" gradientUnits="userSpaceOnUse">
<stop offset="0.3" stop-color="#3FA494"/>
<stop offset="0.5" stop-color="#2D717D"/>
<stop offset="0.73" stop-color="#1B3D66"/>
<stop offset="0.9" stop-color="#101D58"/>
<stop offset="1" stop-color="#0C1153"/>
</linearGradient>
<linearGradient id="paint4_linear_26_375" x1="627.536" y1="442.733" x2="630.741" y2="532.868" gradientUnits="userSpaceOnUse">
<stop offset="0.3" stop-color="#3FA494"/>
<stop offset="0.5" stop-color="#2D717D"/>
<stop offset="0.73" stop-color="#1B3D66"/>
<stop offset="0.9" stop-color="#101D58"/>
<stop offset="1" stop-color="#0C1153"/>
</linearGradient>
<linearGradient id="paint5_linear_26_375" x1="484.515" y1="498.092" x2="582.684" y2="478.114" gradientUnits="userSpaceOnUse">
<stop offset="0.3" stop-color="#3FA494"/>
<stop offset="0.5" stop-color="#2D717D"/>
<stop offset="0.73" stop-color="#1B3D66"/>
<stop offset="0.9" stop-color="#101D58"/>
<stop offset="1" stop-color="#0C1153"/>
</linearGradient>
<linearGradient id="paint6_linear_26_375" x1="522.827" y1="371.698" x2="536.391" y2="450.681" gradientUnits="userSpaceOnUse">
<stop offset="0.3" stop-color="#3FA494"/>
<stop offset="0.5" stop-color="#2D717D"/>
<stop offset="0.73" stop-color="#1B3D66"/>
<stop offset="0.9" stop-color="#101D58"/>
<stop offset="1" stop-color="#0C1153"/>
</linearGradient>
<linearGradient id="paint7_linear_26_375" x1="389.073" y1="433.758" x2="477.66" y2="405.014" gradientUnits="userSpaceOnUse">
<stop offset="0.3" stop-color="#3FA494"/>
<stop offset="0.5" stop-color="#2D717D"/>
<stop offset="0.73" stop-color="#1B3D66"/>
<stop offset="0.9" stop-color="#101D58"/>
<stop offset="1" stop-color="#0C1153"/>
</linearGradient>
<linearGradient id="paint8_linear_26_375" x1="411.293" y1="304.349" x2="431.629" y2="380.941" gradientUnits="userSpaceOnUse">
<stop offset="0.3" stop-color="#3FA494"/>
<stop offset="0.5" stop-color="#2D717D"/>
<stop offset="0.73" stop-color="#1B3D66"/>
<stop offset="0.9" stop-color="#101D58"/>
<stop offset="1" stop-color="#0C1153"/>
</linearGradient>
<linearGradient id="paint9_linear_26_375" x1="304.286" y1="374.331" x2="374.315" y2="346.786" gradientUnits="userSpaceOnUse">
<stop offset="0.3" stop-color="#3FA494"/>
<stop offset="0.5" stop-color="#2D717D"/>
<stop offset="0.73" stop-color="#1B3D66"/>
<stop offset="0.9" stop-color="#101D58"/>
<stop offset="1" stop-color="#0C1153"/>
</linearGradient>
<linearGradient id="paint10_linear_26_375" x1="294.66" y1="250.953" x2="322.175" y2="316.779" gradientUnits="userSpaceOnUse">
<stop offset="0.3" stop-color="#3FA494"/>
<stop offset="0.5" stop-color="#2D717D"/>
<stop offset="0.73" stop-color="#1B3D66"/>
<stop offset="0.9" stop-color="#101D58"/>
<stop offset="1" stop-color="#0C1153"/>
</linearGradient>
<linearGradient id="paint11_linear_26_375" x1="186.551" y1="342.906" x2="279.439" y2="296.441" gradientUnits="userSpaceOnUse">
<stop offset="0.3" stop-color="#3FA494"/>
<stop offset="0.5" stop-color="#2D717D"/>
<stop offset="0.73" stop-color="#1B3D66"/>
<stop offset="0.9" stop-color="#101D58"/>
<stop offset="1" stop-color="#0C1153"/>
</linearGradient>
<linearGradient id="paint12_linear_26_375" x1="330.792" y1="203.325" x2="620.461" y2="744.621" gradientUnits="userSpaceOnUse">
<stop stop-color="#49BFAD"/>
<stop offset="0.19" stop-color="#47BBAB"/>
<stop offset="0.34" stop-color="#44B1A6"/>
<stop offset="0.48" stop-color="#3EA19D"/>
<stop offset="0.61" stop-color="#368991"/>
<stop offset="0.74" stop-color="#2B6B81"/>
<stop offset="0.86" stop-color="#1E456E"/>
<stop offset="0.97" stop-color="#0F1A57"/>
<stop offset="0.99" stop-color="#0C1153"/>
</linearGradient>
<linearGradient id="paint13_linear_26_375" x1="24.614" y1="329.743" x2="175.417" y2="272.939" gradientUnits="userSpaceOnUse">
<stop stop-color="#FFB275"/>
<stop offset="1" stop-color="#B426DB"/>
</linearGradient>
<linearGradient id="paint14_linear_26_375" x1="47.0229" y1="227.692" x2="212.766" y2="279.808" gradientUnits="userSpaceOnUse">
<stop stop-color="#FFB275"/>
<stop offset="1" stop-color="#B426DB"/>
</linearGradient>
<linearGradient id="paint15_linear_26_375" x1="124.297" y1="186.608" x2="220.281" y2="301.829" gradientUnits="userSpaceOnUse">
<stop stop-color="#FFB275"/>
<stop offset="1" stop-color="#B426DB"/>
</linearGradient>
<linearGradient id="paint16_linear_26_375" x1="278.689" y1="580.855" x2="411.225" y2="828.57" gradientUnits="userSpaceOnUse">
<stop stop-color="#3FA494"/>
<stop offset="0.29" stop-color="#3EA192"/>
<stop offset="0.45" stop-color="#3B998F"/>
<stop offset="0.58" stop-color="#368B89"/>
<stop offset="0.69" stop-color="#2F7880"/>
<stop offset="0.79" stop-color="#275F75"/>
<stop offset="0.89" stop-color="#1C4067"/>
<stop offset="0.97" stop-color="#0F1C57"/>
<stop offset="0.99" stop-color="#0C1153"/>
</linearGradient>
<linearGradient id="paint17_linear_26_375" x1="186.671" y1="611.418" x2="269.854" y2="611.418" gradientUnits="userSpaceOnUse">
<stop stop-color="#FFB275"/>
<stop offset="1" stop-color="#B426DB"/>
</linearGradient>
<linearGradient id="paint18_linear_26_375" x1="649.421" y1="313.97" x2="731.301" y2="466.985" gradientUnits="userSpaceOnUse">
<stop offset="0.04" stop-color="#3FA494"/>
<stop offset="0.37" stop-color="#3EA193"/>
<stop offset="0.52" stop-color="#3B9A8F"/>
<stop offset="0.63" stop-color="#378D8A"/>
<stop offset="0.73" stop-color="#307B82"/>
<stop offset="0.81" stop-color="#286377"/>
<stop offset="0.89" stop-color="#1E466A"/>
<stop offset="0.96" stop-color="#12245B"/>
<stop offset="0.99" stop-color="#0C1153"/>
</linearGradient>
<linearGradient id="paint19_linear_26_375" x1="630.265" y1="303.631" x2="713.448" y2="303.631" gradientUnits="userSpaceOnUse">
<stop stop-color="#FFB275"/>
<stop offset="1" stop-color="#B426DB"/>
</linearGradient>
<linearGradient id="paint20_linear_26_375" x1="759.182" y1="405.852" x2="859.668" y2="689.494" gradientUnits="userSpaceOnUse">
<stop stop-color="#A0C896"/>
<stop offset="0.44" stop-color="#3FA494"/>
<stop offset="0.64" stop-color="#3FA494" stop-opacity="0.58"/>
<stop offset="0.81" stop-color="#3FA494" stop-opacity="0.27"/>
<stop offset="0.93" stop-color="#3FA494" stop-opacity="0.07"/>
<stop offset="1" stop-color="#3FA494" stop-opacity="0"/>
</linearGradient>
<linearGradient id="paint21_linear_26_375" x1="843.749" y1="175.731" x2="1042.23" y2="534.21" gradientUnits="userSpaceOnUse">
<stop stop-color="#FFB275"/>
<stop offset="0.66" stop-color="#B426DB"/>
<stop offset="0.69" stop-color="#B426DB" stop-opacity="0.97"/>
<stop offset="0.74" stop-color="#B426DB" stop-opacity="0.9"/>
<stop offset="0.79" stop-color="#B426DB" stop-opacity="0.78"/>
<stop offset="0.85" stop-color="#B426DB" stop-opacity="0.62"/>
<stop offset="0.91" stop-color="#B426DB" stop-opacity="0.4"/>
<stop offset="0.97" stop-color="#B426DB" stop-opacity="0.14"/>
<stop offset="1" stop-color="#B426DB" stop-opacity="0"/>
</linearGradient>
<linearGradient id="paint22_linear_26_375" x1="901.564" y1="478.439" x2="1099.96" y2="788.032" gradientUnits="userSpaceOnUse">
<stop stop-color="#A0C896"/>
<stop offset="0.44" stop-color="#3FA494"/>
<stop offset="0.64" stop-color="#3FA494" stop-opacity="0.58"/>
<stop offset="0.81" stop-color="#3FA494" stop-opacity="0.27"/>
<stop offset="0.93" stop-color="#3FA494" stop-opacity="0.07"/>
<stop offset="1" stop-color="#3FA494" stop-opacity="0"/>
</linearGradient>
<linearGradient id="paint23_linear_26_375" x1="316.511" y1="726.78" x2="686.938" y2="1021.3" gradientUnits="userSpaceOnUse">
<stop stop-color="#FFB275"/>
<stop offset="1" stop-color="#B426DB"/>
</linearGradient>
<linearGradient id="paint24_linear_26_375" x1="656.213" y1="857.087" x2="990.74" y2="946.701" gradientUnits="userSpaceOnUse">
<stop stop-color="#A0C896"/>
<stop offset="0.44" stop-color="#3FA494"/>
<stop offset="0.64" stop-color="#3FA494" stop-opacity="0.58"/>
<stop offset="0.81" stop-color="#3FA494" stop-opacity="0.27"/>
<stop offset="0.93" stop-color="#3FA494" stop-opacity="0.07"/>
<stop offset="1" stop-color="#3FA494" stop-opacity="0"/>
</linearGradient>
<linearGradient id="paint25_linear_26_375" x1="781.929" y1="676.494" x2="1145.74" y2="994.183" gradientUnits="userSpaceOnUse">
<stop stop-color="#FFB275"/>
<stop offset="0.66" stop-color="#B426DB"/>
<stop offset="0.69" stop-color="#B426DB" stop-opacity="0.97"/>
<stop offset="0.74" stop-color="#B426DB" stop-opacity="0.9"/>
<stop offset="0.79" stop-color="#B426DB" stop-opacity="0.78"/>
<stop offset="0.85" stop-color="#B426DB" stop-opacity="0.62"/>
<stop offset="0.91" stop-color="#B426DB" stop-opacity="0.4"/>
<stop offset="0.97" stop-color="#B426DB" stop-opacity="0.14"/>
<stop offset="1" stop-color="#B426DB" stop-opacity="0"/>
</linearGradient>
<linearGradient id="paint26_linear_26_375" x1="757.099" y1="677.259" x2="815.435" y2="786.299" gradientUnits="userSpaceOnUse">
<stop offset="0.04" stop-color="#3FA494"/>
<stop offset="0.32" stop-color="#2C6F7C"/>
<stop offset="0.63" stop-color="#1B3C66"/>
<stop offset="0.86" stop-color="#101C58"/>
<stop offset="0.99" stop-color="#0C1153"/>
</linearGradient>
<linearGradient id="paint27_linear_26_375" x1="712.107" y1="690.136" x2="782.36" y2="690.136" gradientUnits="userSpaceOnUse">
<stop stop-color="#FFB275"/>
<stop offset="1" stop-color="#B426DB"/>
</linearGradient>
<clipPath id="clip0_26_375">
<rect width="1119" height="1104" fill="white" transform="translate(0 -4)"/>
</clipPath>
<clipPath id="clip1_26_375">
<rect width="1103" height="996" fill="white" transform="translate(0 104)"/>
</clipPath>
</defs>
</svg>
